<svg viewBox="0 0 3000 15" xmlns="http://www.w3.org/2000/svg" fill-rule="evenodd" clip-rule="evenodd" stroke-linejoin="round" stroke-miterlimit="1.414"><path fill="url(#a)" d="M0 0h723.07v306.45H0z" transform="translate(875 -257.386) scale(1.72874)"/><path d="M116.97 306.44h89.15l-31.04-153.22-58.11 153.22z" fill="url(#b)" fill-rule="nonzero" transform="translate(875 -257.386) scale(1.72874)"/><path d="M358.03 0h-45.16l-24.52 153.22 22.32 153.22h47.36V0z" fill="url(#c)" fill-rule="nonzero" transform="translate(875 -257.386) scale(1.72874)"/><path d="M209.42 0h-.03l-34.31 153.22 31.04 153.22 47.74-153.22L209.42 0z" fill="url(#d)" fill-rule="nonzero" transform="translate(875 -257.386) scale(1.72874)"/><path d="M312.87 0H209.42l44.44 153.22-47.74 153.22h104.55l-22.32-153.22L312.87 0z" fill="url(#e)" fill-rule="nonzero" transform="translate(875 -257.386) scale(1.72874)"/><path d="M1075.672-257.386H971.17v529.755h106.04L1039.456 7.492l36.217-264.878z" fill="#af1917" fill-rule="nonzero"/><path d="M209.39 0h-93.31l59 153.22L209.39 0z" fill="url(#f)" fill-rule="nonzero" transform="translate(875 -257.386) scale(1.72874)"/><path d="M971.17-257.386H0v529.772l971.17-.017v-529.755z" fill="#931813" fill-rule="nonzero"/><path d="M1075.672-257.386L1039.455 7.492l37.756 264.877L1177.668 7.492l-101.996-264.878z" fill="#d51317" fill-rule="nonzero"/><path d="M641.56 259.58c1.75-25.38 10-54.63 18.79-85.61 1.4-4.953 2.817-9.987 4.25-15.1a2910.125 2910.125 0 0 0-4.25-16.23c-8.76-33.3-17-64.74-18.79-92C640.2 29.44 643 13.6 650.49 0h-45.91c-7.51 18.27-10.29 29.08-8.93 50.26 1.75 27.27 10 58.72 18.79 92 13 49.32 28 106.18 23.18 164.17h12.89c-7.51-12.65-10.31-27.13-8.95-46.85z" fill="url(#g)" fill-rule="nonzero" transform="translate(875 -257.386) scale(1.72874)"/><path d="M614.44 142.28c-8.76-33.3-17-64.74-18.79-92-1.36-21.17 1.41-32 8.93-50.26h-35.44c5.66 53.94-3.78 106.73-13.6 166.78-5.74 35-11.67 71.27-13.2 100.64-1.11 21.12.37 32.76 1.79 39h93.51c4.81-57.98-10.21-114.84-23.2-164.16z" fill="url(#h)" fill-rule="nonzero" transform="translate(875 -257.386) scale(1.72874)"/><path d="M680.52 0c10.68 55.34-2.45 110.42-15.93 158.87 11.74 45.32 23.22 95.85 18.92 147.57l545.71.01V.01L680.52 0z" fill="url(#i)" fill-rule="nonzero" transform="translate(875 -257.386) scale(1.72874)"/><path d="M542.33 267.41c1.54-29.37 7.47-65.6 13.2-100.64C565.36 106.73 574.8 53.94 569.14 0h-70.82c-1.42 11.41-2.88 19.18-1.77 41.84 1.54 31.56 7.46 70.5 13.2 108.16 8.44 55.44 16.6 108.85 15.14 156.44h19.23c-1.43-6.26-2.9-17.91-1.79-39.03z" fill="url(#j)" fill-rule="nonzero" transform="translate(875 -257.386) scale(1.72874)"/><path d="M1493.94-257.386v529.755l30.582-264.877-30.581-264.878z" fill="#283587" fill-rule="nonzero"/><path d="M641.56 50.62c1.75 27.28 10 58.72 18.79 92 1.4 5.333 2.817 10.743 4.25 16.23C678.07 110.42 691.21 55.34 680.52 0h-30c-7.52 13.6-10.32 29.44-8.96 50.62z" fill="url(#k)" fill-rule="nonzero" transform="translate(875 -257.386) scale(1.72874)"/><path d="M509.74 150c-5.73-37.66-11.66-76.6-13.2-108.16-1.11-22.66.36-30.43 1.77-41.84h-41.5c1.53 40.15-1.5 85.28-7 160.77-3.14 43.52-8 110.51-7 145.68h82.06c1.47-47.6-6.69-101-15.13-156.45z" fill="url(#l)" fill-rule="nonzero" transform="translate(875 -257.386) scale(1.72874)"/><path d="M358.03 0l17.69 153.22-17.69 153.22h56.52L414.6 0h-56.57z" fill="url(#m)" fill-rule="nonzero" transform="translate(875 -257.386) scale(1.72874)"/><path d="M449.85 160.77c5.45-75.49 8.48-120.62 7-160.77H414.6l-.06 306.44h28.28c-.97-35.16 3.89-102.15 7.03-145.67z" fill="url(#n)" fill-rule="nonzero" transform="translate(875 -257.386) scale(1.72874)"/><defs><linearGradient id="a" x2="1" gradientUnits="userSpaceOnUse" gradientTransform="translate(0 153.22) scale(723.07)"><stop offset="0%" stop-color="#942230"/><stop offset="4%" stop-color="#921913"/><stop offset="8%" stop-color="#b02638"/><stop offset="12%" stop-color="#ae1917"/><stop offset="13%" stop-color="#b01917"/><stop offset="15%" stop-color="#ca1517"/><stop offset="17%" stop-color="#d41317"/><stop offset="18%" stop-color="#c31a2e"/><stop offset="21%" stop-color="#972d69"/><stop offset="21%" stop-color="#87347f"/><stop offset="24%" stop-color="#843580"/><stop offset="26%" stop-color="#6e358b"/><stop offset="28%" stop-color="#39418f"/><stop offset="32%" stop-color="#14387f"/><stop offset="42%" stop-color="#312a6f"/><stop offset="49%" stop-color="#283486"/><stop offset="56%" stop-color="#1c61a0"/><stop offset="59%" stop-color="#327dab"/><stop offset="63%" stop-color="#50a1b9"/><stop offset="66%" stop-color="#5bafbf"/><stop offset="67%" stop-color="#55adbe"/><stop offset="69%" stop-color="#46a6bb"/><stop offset="71%" stop-color="#2b9cb6"/><stop offset="74%" stop-color="#078dae"/><stop offset="74%" stop-color="#008aad"/><stop offset="83%" stop-color="#009871"/><stop offset="89%" stop-color="#00a14c"/><stop offset="100%" stop-color="#00917d"/></linearGradient><linearGradient id="b" x2="1" gradientUnits="userSpaceOnUse" gradientTransform="rotate(180 103.06 114.915) scale(89.15)"><stop offset="0%" stop-color="#88357f"/><stop offset="34%" stop-color="#88357f"/><stop offset="72%" stop-color="#8c2b58"/><stop offset="100%" stop-color="#8f2540"/></linearGradient><linearGradient id="c" x2="1" gradientUnits="userSpaceOnUse" gradientTransform="matrix(-32.39 202.52 -202.52 -32.39 359.9 .3)"><stop offset="0%" stop-color="#312a6f"/><stop offset="24%" stop-color="#312a6f"/><stop offset="45%" stop-color="#2c2d73"/><stop offset="70%" stop-color="#1e377f"/><stop offset="96%" stop-color="#064692"/><stop offset="100%" stop-color="#024995"/></linearGradient><linearGradient id="d" x2="1" gradientUnits="userSpaceOnUse" gradientTransform="translate(175.08 153.22) scale(78.78)"><stop offset="0%" stop-color="#6e368c"/><stop offset="100%" stop-color="#3a4190"/></linearGradient><linearGradient id="e" x2="1" gradientUnits="userSpaceOnUse" gradientTransform="rotate(180 156.435 76.61) scale(106.75)"><stop offset="0%" stop-color="#14387f"/><stop offset="22%" stop-color="#19387f"/><stop offset="47%" stop-color="#273881"/><stop offset="74%" stop-color="#3f3983"/><stop offset="100%" stop-color="#5c3986"/></linearGradient><linearGradient id="f" x2="1" gradientUnits="userSpaceOnUse" gradientTransform="matrix(-96.45 0 0 -96.45 210.11 76.61)"><stop offset="0%" stop-color="#88357f"/><stop offset="34%" stop-color="#88357f"/><stop offset="72%" stop-color="#8c2b58"/><stop offset="100%" stop-color="#8f2540"/></linearGradient><linearGradient id="g" x2="1" gradientUnits="userSpaceOnUse" gradientTransform="matrix(0 306.44 -306.44 0 629.96 0)"><stop offset="0%" stop-color="#94bd55"/><stop offset="30%" stop-color="#8cbc66"/><stop offset="67%" stop-color="#85bb73"/><stop offset="100%" stop-color="#83bb78"/></linearGradient><linearGradient id="h" x2="1" gradientUnits="userSpaceOnUse" gradientTransform="rotate(75.199 265.285 348.928) scale(312.1)"><stop offset="0%" stop-color="#00a24c"/><stop offset="27%" stop-color="#00a053"/><stop offset="64%" stop-color="#009a65"/><stop offset="100%" stop-color="#00937d"/></linearGradient><linearGradient id="i" x2="1" gradientUnits="userSpaceOnUse" gradientTransform="matrix(0 306.44 -306.44 0 693.84 0)"><stop offset="0%" stop-color="#699f60"/><stop offset="0%" stop-color="#689f60"/><stop offset="15%" stop-color="#4d9752"/><stop offset="31%" stop-color="#389147"/><stop offset="49%" stop-color="#298c40"/><stop offset="69%" stop-color="#208a3b"/><stop offset="100%" stop-color="#1d893a"/></linearGradient><linearGradient id="j" x2="1" gradientUnits="userSpaceOnUse" gradientTransform="matrix(0 306.44 -306.44 0 533.5 0)"><stop offset="0%" stop-color="#00b5dd"/><stop offset="28%" stop-color="#00afd6"/><stop offset="67%" stop-color="#009ec3"/><stop offset="100%" stop-color="#008bae"/></linearGradient><linearGradient id="k" x2="1" gradientUnits="userSpaceOnUse" gradientTransform="rotate(-60.72 422.633 -477.056) scale(93.39)"><stop offset="0%" stop-color="#62b16e"/><stop offset="100%" stop-color="#86b857"/></linearGradient><linearGradient id="l" x2="1" gradientUnits="userSpaceOnUse" gradientTransform="rotate(75 211.073 284.462) scale(313.63)"><stop offset="0%" stop-color="#009ad4"/><stop offset="22%" stop-color="#0f9ed1"/><stop offset="65%" stop-color="#37a7c8"/><stop offset="100%" stop-color="#5bb0c0"/></linearGradient><linearGradient id="m" x2="1" gradientUnits="userSpaceOnUse" gradientTransform="matrix(0 306.44 -306.44 0 386.32 0)"><stop offset="0%" stop-color="#174290"/><stop offset="40%" stop-color="#20559e"/><stop offset="100%" stop-color="#327ab9"/></linearGradient><linearGradient id="n" x2="1" gradientUnits="userSpaceOnUse" gradientTransform="matrix(0 -306.44 306.44 0 435.87 306.44)"><stop offset="0%" stop-color="#3e9ac9"/><stop offset="100%" stop-color="#1d61a1"/></linearGradient></defs></svg>