<svg id="Ebene_1" data-name="Ebene 1" xmlns="http://www.w3.org/2000/svg" viewBox="0 0 339.96 75.66"><defs><style>.cls-1{fill:#e20015;fill-rule:evenodd;}.cls-2{fill:#595959;}</style></defs><title>bosch_logo_web_ohne-Slogan</title><path class="cls-1" d="M145.37,36.67a10.82,10.82,0,0,0,6.87-10.24c0-9.21-6.51-13.71-15.49-13.71H113.36v49.9h25.5c7.82,0,15.57-5.53,15.57-13.93C154.44,38.81,145.37,36.75,145.37,36.67ZM125.64,23.11h9.14a4.49,4.49,0,0,1,4.75,4.72,4.68,4.68,0,0,1-5,4.57h-8.92Zm9.14,29.11h-9.14v-9.8h8.92c4.46,0,6.58,2,6.58,4.86C141.13,50.9,138.5,52.22,134.78,52.22Z"/><path class="cls-1" d="M181.43,11.47C167,11.47,158.48,23,158.48,37.63S167,63.8,181.43,63.8s22.95-11.5,22.95-26.16S196,11.47,181.43,11.47Zm0,40.39c-7.09,0-10.6-6.34-10.6-14.22s3.51-14.15,10.6-14.15,10.67,6.34,10.67,14.15S188.52,51.85,181.43,51.85Z"/><path class="cls-1" d="M231,32.33,229.25,32c-4.25-.89-7.6-2-7.6-5,0-3.32,3.22-4.64,6.06-4.64A14.26,14.26,0,0,1,238,26.94l7.75-7.67c-3.51-4-9.28-7.81-18.2-7.81C217,11.47,209,17.36,209,27.17c0,8.92,6.46,13.38,14.32,15l1.75.37c6.53,1.37,8.92,2.36,8.92,5.53C234,51,231.3,53,227.28,53a15.69,15.69,0,0,1-12.64-6.41l-8,7.81c4.38,5.23,9.94,9.36,20.75,9.36,9.36,0,19.29-5.31,19.29-16.29C246.72,36,238.12,33.82,231,32.33Z"/><path class="cls-1" d="M274.52,51.85c-5.48,0-11.25-4.55-11.25-14.52,0-8.89,5.34-13.86,10.89-13.86,4.39,0,7,2.06,9.06,5.6l10.09-6.71c-5-7.59-11-10.83-19.22-10.83-15.06,0-23.24,11.72-23.24,25.8,0,14.81,9.06,26.46,23.1,26.46,9.86,0,14.61-3.46,19.73-10.83l-10.16-6.85C281.46,49.5,279.27,51.85,274.52,51.85Z"/><polygon class="cls-1" points="326.8 12.72 326.8 31.07 311.67 31.07 311.67 12.72 298.59 12.72 298.59 62.62 311.67 62.62 311.67 42.94 326.8 42.94 326.8 62.62 339.96 62.62 339.96 12.72 326.8 12.72"/><path class="cls-2" d="M37.83,0A37.83,37.83,0,1,0,75.66,37.83,37.83,37.83,0,0,0,37.83,0Zm0,72.12A34.29,34.29,0,1,1,72.12,37.83,34.32,34.32,0,0,1,37.83,72.12Z"/><path class="cls-2" d="M53.49,14.22H50.86v13h-26v-13H22.17a28.28,28.28,0,0,0,0,47.22h2.68v-13h26v13h2.62a28.27,28.27,0,0,0,0-47.22ZM21.31,56.34a24.78,24.78,0,0,1,0-37ZM50.86,44.92h-26V30.74h26Zm3.55,11.37V48.47h0V27.2h0V19.38a24.77,24.77,0,0,1,0,36.91Z"/></svg>